<svg width="52" height="52" viewBox="0 0 52 52" fill="none" xmlns="http://www.w3.org/2000/svg">
<rect width="52" height="52" rx="8" fill="#EBEBFF"/>
<g clip-path="url(#clip0_476_1106)">
<path d="M31 21.25H21C19.6193 21.25 18.5 20.1307 18.5 18.75V13.75C18.5 12.3693 19.6193 11.25 21 11.25H31C32.3807 11.25 33.5 12.3693 33.5 13.75V18.75C33.5 20.1307 32.3807 21.25 31 21.25Z" stroke="#0000FF" stroke-width="2.5" stroke-miterlimit="10" stroke-linecap="round" stroke-linejoin="round"/>
<path d="M38.25 31H13.75C12.3692 31 11.25 29.8807 11.25 28.5C11.25 27.1193 12.3692 26 13.75 26H38.25C39.6307 26 40.75 27.1193 40.75 28.5C40.75 29.8807 39.6307 31 38.25 31Z" stroke="#0000FF" stroke-width="2.5" stroke-miterlimit="10" stroke-linecap="round" stroke-linejoin="round"/>
<path d="M16.25 40.75V31" stroke="#0000FF" stroke-width="2.5" stroke-miterlimit="10" stroke-linecap="round" stroke-linejoin="round"/>
<path d="M35.75 40.75V31" stroke="#0000FF" stroke-width="2.5" stroke-miterlimit="10" stroke-linecap="round" stroke-linejoin="round"/>
<path d="M21 38.25H31" stroke="#0000FF" stroke-width="2.5" stroke-miterlimit="10" stroke-linecap="round" stroke-linejoin="round"/>
<path d="M26 26V21.25" stroke="#0000FF" stroke-width="2.5" stroke-miterlimit="10" stroke-linecap="round" stroke-linejoin="round"/>
</g>
<defs>
<clipPath id="clip0_476_1106">
<rect width="32" height="32" fill="white" transform="translate(10 10)"/>
</clipPath>
</defs>
</svg>
