<svg width="52" height="52" viewBox="0 0 52 52" fill="none" xmlns="http://www.w3.org/2000/svg">
<rect width="52" height="52" rx="8" fill="#EBEBFF"/>
<g clip-path="url(#clip0_476_953)">
<path d="M16.5679 12.4197C17.0888 11.8988 17.0888 11.0542 16.5679 10.5333C16.047 10.0124 15.2024 10.0124 14.6815 10.5333C8.4395 16.7753 8.4395 26.9277 14.6815 33.1697C15.2024 33.6906 16.047 33.6906 16.5679 33.1697C17.0888 32.6488 17.0888 31.8042 16.5679 31.2833C11.3678 26.0832 11.3678 17.6198 16.5679 12.4197Z" fill="#0000FF"/>
<path d="M37.3181 10.5323C36.7972 10.0114 35.9526 10.0114 35.4317 10.5323C34.9108 11.0532 34.9108 11.8978 35.4317 12.4187C40.6318 17.6188 40.6318 26.0822 35.4317 31.2823C34.9108 31.8032 34.9108 32.6478 35.4317 33.1687C35.9526 33.6896 36.7972 33.6896 37.3181 33.1687C43.5601 26.9267 43.5601 16.7742 37.3181 10.5323Z" fill="#0000FF"/>
<path d="M20.3412 16.1912C20.8621 15.6703 20.8621 14.8256 20.3412 14.3047C19.8203 13.7838 18.9757 13.7838 18.4548 14.3047C14.2937 18.4659 14.2937 25.2356 18.4548 29.3967C18.9757 29.9176 19.8203 29.9176 20.3412 29.3967C20.8621 28.8758 20.8621 28.0312 20.3412 27.5103C17.222 24.391 17.222 19.3105 20.3412 16.1912Z" fill="#0000FF"/>
<path d="M33.5447 14.3047C33.0238 13.7838 32.1792 13.7838 31.6583 14.3047C31.1374 14.8256 31.1374 15.6703 31.6583 16.1912C34.7776 19.3105 34.7776 24.391 31.6583 27.5103C31.1374 28.0312 31.1374 28.8758 31.6583 29.3967C32.1792 29.9176 33.0238 29.9176 33.5447 29.3967C37.7058 25.2356 37.7058 18.4659 33.5447 14.3047Z" fill="#0000FF"/>
<path d="M31.3352 21.8512C31.3352 18.9043 28.9465 16.5156 25.9996 16.5156C23.0527 16.5156 20.6641 18.9043 20.6641 21.8512C20.6641 24.3374 22.3642 26.4262 24.6654 27.0186L24.6617 40.5253C24.6616 41.262 25.2586 41.8594 25.9953 41.8596C26.732 41.8598 27.3294 41.2628 27.3295 40.526L27.3332 27.0187C29.6347 26.4267 31.3352 24.3377 31.3352 21.8512ZM25.9996 24.519C24.526 24.519 23.3317 23.3248 23.3317 21.8512C23.3317 20.3776 24.5259 19.1834 25.9996 19.1834C27.4732 19.1834 28.6674 20.3776 28.6674 21.8512C28.6674 23.3248 27.4732 24.519 25.9996 24.519Z" fill="#0000FF"/>
</g>
<defs>
<clipPath id="clip0_476_953">
<rect width="32" height="32" fill="white" transform="translate(10 10)"/>
</clipPath>
</defs>
</svg>
