<svg width="53" height="52" viewBox="0 0 53 52" fill="none" xmlns="http://www.w3.org/2000/svg">
<rect width="52.4" height="50.514" rx="8" fill="#EBEBFF"/>
<path d="M42.1992 21.4907V12.0789H27.1404V21.4907H31.8463V23.373H25.258V21.8671C25.258 18.9095 24.2384 17.3574 23.383 16.5761C23.1612 16.3736 22.9384 16.2104 22.7247 16.0785C23.1353 15.4755 23.3757 14.7478 23.3757 13.9649C23.3757 11.889 21.6868 10.2002 19.611 10.2002C17.5351 10.2002 15.8463 11.889 15.8463 13.9649C15.8463 14.7495 16.0879 15.4787 16.5001 16.0825C16.2852 16.2157 16.0609 16.3805 15.8377 16.5851C14.9829 17.3687 13.9639 18.9211 13.9639 21.8671V23.373H10.1992V25.2554H12.0816V40.3142H40.3169V25.2554H42.1992V23.373H37.4933V21.4907H42.1992ZM29.0227 13.9613H40.3169V19.6083H29.0227V13.9613ZM19.611 12.0825C20.6489 12.0825 21.4933 12.927 21.4933 13.9649C21.4933 15.0028 20.6489 15.8473 19.611 15.8473C18.5731 15.8473 17.7286 15.0028 17.7286 13.9649C17.7286 12.927 18.5731 12.0825 19.611 12.0825ZM15.8463 21.8671C15.8463 18.1108 17.7433 17.4983 18.1075 17.4154C18.5683 17.617 19.0766 17.7297 19.611 17.7297C20.1463 17.7297 20.6554 17.6166 21.1169 17.4144C21.2414 17.4419 21.6702 17.5612 22.1135 17.966C22.9392 18.7202 23.3757 20.0692 23.3757 21.8671V23.373H15.8463V21.8671ZM38.4345 38.4319H13.9639V25.2554H25.258H38.4345V38.4319ZM35.611 23.373H33.7286V21.4907H35.611V23.373Z" fill="#0000FF"/>
<path fill-rule="evenodd" clip-rule="evenodd" d="M42.4 21.6905H37.6941V23.1728H42.4V25.4552H40.5176V40.514H11.8824V25.4552H10V23.1728H13.7647V21.8669C13.7647 18.869 14.8042 17.2617 15.7034 16.4375C15.7034 16.4375 15.7034 16.4375 15.7034 16.4375L15.8385 16.5849M16.3925 15.9142C16.4272 15.9712 16.4634 16.0273 16.5009 16.0823C16.4456 16.1166 16.3897 16.1529 16.3333 16.1915M16.3925 15.9142C16.0467 15.3452 15.8471 14.6778 15.8471 13.9647C15.8471 11.8888 17.5359 10.2 19.6118 10.2C21.6876 10.2 23.3765 11.8888 23.3765 13.9647C23.3765 14.6761 23.1779 15.3419 22.8337 15.91C22.7991 15.9671 22.763 16.0232 22.7255 16.0783C22.7809 16.1124 22.8368 16.1487 22.8932 16.1873C23.0546 16.2974 23.2195 16.4258 23.3837 16.5759C24.2392 17.3572 25.2588 18.9093 25.2588 21.8669V23.3728H31.8471V21.4905H27.1412V12.0787H42.2V21.4905H37.4941V23.3728H42.2V25.2552H40.3176V40.314H12.0824V25.2552H10.2V23.3728H13.9647V23.1728M31.6471 21.6905H26.9412V11.8787H42.4V21.6905M31.6471 21.6905V23.1728H25.4588V21.8669C25.4588 18.8576 24.4187 17.2504 23.5186 16.4282C23.3455 16.2701 23.1716 16.1348 23.0015 16.019C23.366 15.4195 23.5765 14.7161 23.5765 13.9647C23.5765 11.7784 21.7981 10 19.6118 10C17.4254 10 15.6471 11.7784 15.6471 13.9647C15.6471 14.718 15.8586 15.423 16.2249 16.0234M40.1176 14.1611H29.2235V19.4081H40.1176V14.1611ZM21.2941 13.9647C21.2941 13.0372 20.5392 12.2824 19.6118 12.2824C18.6843 12.2824 17.9294 13.0372 17.9294 13.9647C17.9294 14.8922 18.6843 15.6471 19.6118 15.6471C20.5392 15.6471 21.2941 14.8922 21.2941 13.9647ZM16.9956 18.3905C16.5121 18.9793 16.0471 20.0229 16.0471 21.8669V23.1728H23.1765V21.8669C23.1765 20.0919 22.7442 18.8121 21.9794 18.1135C21.6273 17.7919 21.2876 17.6675 21.1343 17.6246C20.6652 17.8205 20.151 17.9295 19.6118 17.9295C19.0737 17.9295 18.5604 17.821 18.0921 17.6258C17.8902 17.683 17.4283 17.8636 16.9956 18.3905ZM18.1083 17.4152C17.744 17.4981 15.8471 18.1107 15.8471 21.8669V23.3728H23.3765V23.1728M21.1176 17.4142C20.6562 17.6164 20.147 17.7295 19.6118 17.7295C19.0774 17.7295 18.5691 17.6168 18.1083 17.4152M14.1647 38.2317H38.2353V25.4552H14.1647V38.2317ZM33.9294 23.1728H35.4118V21.6905H33.9294V23.1728ZM29.0235 13.9611V19.6081H40.3176V13.9611H29.0235ZM21.4941 13.9647C21.4941 12.9268 20.6497 12.0824 19.6118 12.0824C18.5738 12.0824 17.7294 12.9268 17.7294 13.9647C17.7294 15.0026 18.5738 15.8471 19.6118 15.8471C20.6497 15.8471 21.4941 15.0026 21.4941 13.9647ZM38.4353 38.4317V25.2552H13.9647V38.4317H38.4353ZM35.6118 23.3728V21.4905H33.7294V23.3728H35.6118Z" fill="#0000FF"/>
<path d="M25.2598 30.9023H27.1421V36.5494H25.2598V30.9023Z" fill="#0000FF"/>
<path fill-rule="evenodd" clip-rule="evenodd" d="M25.0586 30.7021H27.3409V36.7492H25.0586V30.7021ZM25.2586 30.9021V36.5492H27.1409V30.9021H25.2586Z" fill="#0000FF"/>
<path d="M25.2598 27.1377H27.1421V29.02H25.2598V27.1377Z" fill="#0000FF"/>
<path fill-rule="evenodd" clip-rule="evenodd" d="M25.0586 26.9375H27.3409V29.2199H25.0586V26.9375ZM25.2586 27.1375V29.0199H27.1409V27.1375H25.2586Z" fill="#0000FF"/>
</svg>
