<svg width="52" height="52" viewBox="0 0 52 52" fill="none" xmlns="http://www.w3.org/2000/svg">
<rect width="52" height="52" rx="8" fill="#EBEBFF"/>
<path d="M39 26.0004H38V22.9004C38 21.3004 36.7 19.9004 35 19.9004C33.4 19.9004 32 21.2004 32 22.9004C32 23.5004 32.4 23.9004 33 23.9004C33.6 23.9004 34 23.4004 34 22.9004C34 22.4004 34.4 21.9004 35 21.9004C35.6 21.9004 36 22.3004 36 22.9004V26.0004H29V25.0004C29 24.4004 28.6 24.0004 28 24.0004H13C12.4 24.0004 12 24.4004 12 25.0004V39.0004C12 39.6004 12.4 40.0004 13 40.0004H39C39.6 40.0004 40 39.5004 40 39.0004V27.0004C40 26.4004 39.6 26.0004 39 26.0004ZM27 26.0004V27.9004H14V26.0004H27ZM14 29.9004H27V38.0004H14V29.9004ZM38 38.0004H29V28.0004H38V38.0004Z" fill="#0000FF"/>
<path d="M15.9992 20H25.9992C26.9992 20 27.1992 18.9 26.7992 18.4L23.9992 14.7V13C23.9992 12.4 23.5992 12 22.9992 12H18.9992C18.3992 12 17.9992 12.4 17.9992 13V14.7L15.1992 18.4C14.7992 19 15.0992 20 15.9992 20ZM19.7992 15.6C19.8992 15.4 19.9992 15.2 19.9992 15V14H21.9992V15C21.9992 15.2 22.0992 15.4 22.1992 15.6L23.9992 18H17.9992L19.7992 15.6Z" fill="#0000FF"/>
<path d="M32 32H35C35.6 32 36 31.6 36 31C36 30.4 35.6 30 35 30H32C31.4 30 31 30.4 31 31C31 31.6 31.4 32 32 32Z" fill="#0000FF"/>
</svg>
