<svg width="52" height="52" viewBox="0 0 52 52" fill="none" xmlns="http://www.w3.org/2000/svg">
<rect width="52" height="52" rx="8" fill="#EBEBFF"/>
<g clip-path="url(#clip0_476_1083)">
<path d="M10.0469 10H10V10.0469H10.0469V10Z" fill="white"/>
<path d="M40.75 13.75C40.75 12.3693 39.6307 11.25 38.25 11.25C36.8693 11.25 35.75 12.3693 35.75 13.75C35.75 15.1307 36.8693 16.25 38.25 16.25C39.6307 16.25 40.75 15.1307 40.75 13.75Z" stroke="#0000FF" stroke-width="2.5" stroke-miterlimit="10"/>
<path d="M11.25 13.75C11.25 12.3693 12.3692 11.25 13.75 11.25C15.1307 11.25 16.25 12.3693 16.25 13.75C16.25 15.1307 15.1307 16.25 13.75 16.25C12.3692 16.25 11.25 15.1307 11.25 13.75Z" stroke="#0000FF" stroke-width="2.5" stroke-miterlimit="10"/>
<path d="M20.0625 42V34.25C20.0625 32.8693 18.9432 31.75 17.5625 31.75H13.75C12.3692 31.75 11.25 30.6308 11.25 29.25V22.4375C11.25 21.0629 12.3601 19.9423 13.7347 19.9375C15.1185 19.9328 16.0001 20.5754 16.75 22.8125C17.0789 23.7936 18 26.5625 18 26.5625H34C34 26.5625 34.9211 23.7936 35.25 22.8125C35.9999 20.5754 36.8815 19.9328 38.2653 19.9375C39.6399 19.9423 40.75 21.0629 40.75 22.4375V29.25C40.75 30.6308 39.6307 31.75 38.25 31.75H34.5C33.1192 31.75 32 32.8693 32 34.25V42" stroke="#0000FF" stroke-width="2.5" stroke-miterlimit="10"/>
<path d="M37 42V34.0625C37 32.6818 38.1193 31.5625 39.5 31.5625" stroke="#0000FF" stroke-width="2.5" stroke-miterlimit="10"/>
<path d="M15 42V34.0625C15 32.6818 13.8807 31.5625 12.5 31.5625" stroke="#0000FF" stroke-width="2.5" stroke-miterlimit="10"/>
<path d="M23.5 13.75C23.5 12.3693 24.6193 11.25 26 11.25C27.3807 11.25 28.5 12.3693 28.5 13.75C28.5 15.1307 27.3807 16.25 26 16.25C24.6193 16.25 23.5 15.1307 23.5 13.75Z" stroke="#0000FF" stroke-width="2.5" stroke-miterlimit="10"/>
<path d="M21.625 26.625V22.4375C21.625 21.0568 22.7442 19.9375 24.125 19.9375H27.875C29.2557 19.9375 30.375 21.0568 30.375 22.4375V26.875" stroke="#0000FF" stroke-width="2.5" stroke-miterlimit="10"/>
</g>
<defs>
<clipPath id="clip0_476_1083">
<rect width="32" height="32" fill="white" transform="translate(10 10)"/>
</clipPath>
</defs>
</svg>
